<?xml version="1.0" encoding="UTF-8"?>
<svg id="Layer_1" data-name="Layer 1" xmlns="http://www.w3.org/2000/svg" viewBox="0 0 800 800">
  <defs>
    <style>
      .cls-1 {
        fill: #fff;
      }

      .cls-2 {
        fill: #2d2d36;
      }

      .cls-3 {
        fill: #fbd6bb;
      }

      .cls-4 {
        fill: #dbd079;
      }

      .cls-5 {
        fill: #635399;
      }
    </style>
  </defs>
  <path class="cls-4" d="M787.36,162.73c-9.44-16.5-26.02-33.37-44.72-43.02,8.5-29.62,10.44-66.21.51-91.19-9-22.64-66.55-38.96-66.52-3.02.02,19.16,3.58,37.79,1.47,57.03-.47,4.3-1.33,8.54-2.29,12.76-6.44-2.26-13.05-4.04-19.77-4.97-27.56-3.79-57.42,7.19-83.77-3.08-21.93-8.55-40.02,14.35-28.17,34.07,30.9,51.41,89.55,74.39,147.09,58.32,2.04-.57,3.1-1.78,4.74-2.62,11.72,8.32,23.74,21.28,30.16,28.64,13.7,15.71,21.67,34.2,24.45,54.77,3.3,24.53,38.86,26.68,43.78,1.76,6.63-33.6,10.77-68.49-6.95-99.47Z"/>
  <path class="cls-5" d="M762.04,188.45c-19.89-39.65-76.15-68.14-130.46-59.15-43.55,7.21-84.31,28.26-117.34,57.54-39.62,35.14-69.03,82.15-114.25,109.71-36.74,22.39-80.35,29.72-122.34,39.14-62.8,14.09-125.64,34.42-177.22,72.93-41.44,30.93-74.69,73.72-90.48,122.96-15.79,49.24-13.23,104.89,10.69,150.73,22.5,43.12,62.66,75.68,107.82,93.76,45.16,18.07,95.04,22.38,143.45,17.72,87.18-8.39,170.29-45.34,240.1-98.23,69.81-52.9,126.86-121.28,173.59-195.35,31.52-49.97,58.87-103.5,71.31-161.26,9.62-44.67,27.85-105.14,5.11-150.49Z"/>
  <path class="cls-3" d="M75.07,596.26c-11.56-7.3-23.64-7.93-30.84,9.33-4.36,10.45-2.4,22.36.07,33.42,2.39,10.71,5.24,21.44,10.41,31.12,3.06,5.72,7.06,11.18,12.67,14.43,12.95,7.52,30.96.07,38.03-13.12,7.07-13.19,4.9-29.8-1.89-43.15-4.78-9.39-16.33-24.37-28.45-32.03Z"/>
  <path class="cls-4" d="M732.32,142.44c-10.82-3.55-19.15-9.18-28.21-15.96-6.19-4.63-12.51-3.56-17.23.14-9.8-11.94-21.04-22.95-37.64-21.46-7.24.65-11.75,11.01-4.04,14.93,6.25,3.18,9.16,12.17,12.64,17.72,3.82,6.08,8.67,11.42,12.51,17.46,8.11,12.72,5.3,27.32,7.87,41.77,1.75,9.85,15.85,12.83,22.26,5.88,11.95-12.95,24.91-24.59,38.29-36.04,8.84-7.57,3.23-21.25-6.45-24.43Z"/>
  <path class="cls-2" d="M311.55,733.64c-3.18-8.01-11.3-13.38-19.73-15.43-13.13-3.19-43.54-4.59-54.86,4.31-6.15,4.83-8.79,12.89-9.85,20.63-.99,7.21-.72,15.08,3.49,21.01,2.87,4.04,7.32,6.76,12,8.39,9.13,3.17,19.12,2.51,28.69,1.14,10.68-1.53,21.63-4.08,30.15-10.71,8.52-6.62,13.94-18.26,10.43-28.47-.1-.3-.21-.59-.32-.88Z"/>
  <path class="cls-2" d="M378.15,691.48c-4.73,1.37-9.27,3.66-13.28,6.51-7.85,5.58-14.47,13.97-14.91,23.59-1.37,29.89,38.73,20.31,52.26,8.47,4.83-4.23,8.96-9.74,9.76-16.11,1.31-10.42-7.23-20.39-17.41-22.98-5.41-1.38-11.05-1.02-16.42.53Z"/>
  <path class="cls-2" d="M696.99,330.86c-4.96,7.68-7.7,17.15-6.04,25.85,1.61,8.48,6.63,17.55,14.78,20.76,10.16,4,20.12-2.71,26.04-10.64,6.86-9.21,11.12-21.61,7.05-33.61-9.31-27.51-30.93-19.25-41.83-2.36Z"/>
  <path class="cls-1" d="M225.71,375.96c-9.52-3.3-20.04-1.81-29.75.88-12.5,3.46-25.37,9.71-31.15,21.32-19.31,38.83,38.18,30.33,55.64,23.07,10.2-4.24,20.83-11.67,21.88-22.67.95-10.04-7.08-19.3-16.62-22.6Z"/>
</svg>