<?xml version="1.0" encoding="UTF-8"?>
<svg id="Layer_1" data-name="Layer 1" xmlns="http://www.w3.org/2000/svg" viewBox="0 0 800 800">
  <defs>
    <style>
      .cls-1 {
        fill: #355210;
      }

      .cls-2 {
        fill: #618735;
      }
    </style>
  </defs>
  <path class="cls-1" d="M652.16,121.14c-10.73-18.1-29.44-7.14-42.63.88-8.2,4.99-16.41,9.98-24.61,14.96-34.86,21.19-68.34,55.86-107.98,67.19-40.81,11.66-85.53,2.62-127.74,15.02-45.69,13.43-90.35,14.2-137.68,12.64-55.54-1.82-91.62-15.73-143.19-31.96-19.61-6.17-44.94-28.96-60.16-16.24-13.23,11.06-.08,71.1,24.12,91.57,14.48,12.25,31.67,17.53,49.51,22.01,41.53,10.42,89.37,21.94,132.11,27.98,29.1,4.12,53.03-1.03,81.36-3.17,43.39-3.26,85.18,3.34,127.73-7.44,53.06-13.45,281.15-105.68,229.15-193.45Z"/>
  <path class="cls-1" d="M772.33,285.98c-16.77,6.68-32.46,12.38-50.16,16.25-51.14,11.2-97.4,35.62-140.75,64.35-25.43,16.86-49.71,34.29-68.23,58.81-19.51,25.82-28.51,56.99-53.33,80.55-44.9,42.63-87.72,66.58-110.95,127.33-12.5,32.7-11.1,108.64,24.12,138.73,20.54,17.54,17.82,2.23,33.27-18.87,20.64-28.2,19-66.73,43.35-94.62,17.68-20.24,37.48-37.65,53.14-59.89,26.65-37.83,46.9-69.45,80.85-101.76,27.37-26.05,44.64-64.37,75.54-86.58,49.25-35.4,105.28-36.41,135.79-94.86,7.25-13.9-5.18-36.39-22.64-29.45Z"/>
  <g>
    <path class="cls-1" d="M716.65,29.59c-3.45,11.25-8.2,21.57-13.05,32.27-4.43,9.78-10.63,19.07-9.57,30.08,1.06,10.94,11.76,18.61,22.19,12.73,22.16-12.48,24.3-48.92,26.45-71.56,1.46-15.34-21.8-17.28-26.03-3.52Z"/>
    <path class="cls-2" d="M731.17,80.39c-12.86-24.6-61.58-5.94-80.24,5.09-29.37,17.36-49.28,48.59-68.19,76.01-33.43,48.46-75.68,59.78-119.67,92.91-31,23.35-47.24,56.59-72.93,84.71-29.56,32.38-70.78,43.69-103.35,71.68-15.2,13.06-26.17,30.2-40.84,43.63-21.6,19.78-78.21,31.23-103.43,45.03-21.04,11.51-58.81,35.59-69.73,44.12-15.58,12.15-51.48-1.28-45.8,18.56,18.86,65.89,131.72,40.99,172.05,28.26,92.25-29.11,164.7-84.11,237.63-147.47,69.61-60.47,145.55-95.81,201.98-168.78,26.61-34.41,49.31-64.43,70.38-102.81,12.54-22.84,27.45-53.08,25.12-79.9-.38-4.39-1.42-8.04-2.99-11.05Z"/>
    <path class="cls-1" d="M274.8,461.45c-2.13-6.82-9.48-9.67-15.74-6.4-18.42,9.62-23.92,34-27.83,52.8-5.14,24.66,33.44,34.72,37.48,10.33,2.99-18.02,11.72-38.68,6.09-56.73Z"/>
    <path class="cls-1" d="M414.61,332.9c-2.24,2.76-3.86,6.05-5.35,9.31-3.71,8.13-6.88,16.5-9.5,25.04-1.76,5.72-3.27,11.75-2.26,17.64,2.36,13.7,20.32,19.49,29.01,7.77,3.99-5.38,5.04-12.33,5.97-18.97,1.22-8.73,2.44-17.47,3.66-26.2.97-6.98,1.23-15.62-4.76-19.34-4.22-2.63-10-1.33-13.86,1.8-1.08.88-2.04,1.87-2.91,2.95Z"/>
    <path class="cls-1" d="M557.7,208.16c-1.73,1.35-3.31,2.99-4.62,4.64-8.22,10.33-13.9,22.67-16.38,35.64-2.93,15.32,13.53,39.07,28.11,20.65,4.27-5.4,5.26-12.62,6.1-19.45,1.09-8.94,2.19-17.89,3.28-26.83.77-6.31.7-14.3-5.01-17.09-3.82-1.87-7.97-.29-11.48,2.45Z"/>
  </g>
</svg>