<?xml version="1.0" encoding="UTF-8"?>
<svg id="Layer_1" data-name="Layer 1" xmlns="http://www.w3.org/2000/svg" viewBox="0 0 800 800">
  <defs>
    <style>
      .cls-1 {
        fill: #41601c;
      }

      .cls-2 {
        fill: #2d2d36;
      }

      .cls-3 {
        fill: #db593b;
      }
    </style>
  </defs>
  <path class="cls-2" d="M687.56,574.85c-5.82-6.32-13.76-7.94-21.21-3.05-7.35,4.83-12.17,12.84-17.87,19.42-5.42,6.25-7.26,17.18-3.66,24.74.4.84.8,1.68,1.2,2.52,2.91,6.12,8.81,12.86,16.29,13.08.67.02,1.34.03,2.02.05,14.81.42,24.74-6.4,28.71-20.94,3.22-11.77,3.23-26.36-5.47-35.82Z"/>
  <path class="cls-2" d="M146.52,171.09c-2.64-.2-5.32.07-7.83.78-8.05,2.28-14.55,8.19-20.12,14.44-6.06,6.8-11.65,14.92-11.71,24.03-.05,7.19,3.58,14.23,9.24,18.66,13.3,10.41,29.61,4.92,38-8.56,4.07-6.53,6.24-14.06,7.84-21.59,1.4-6.58,2.31-13.87-1.09-19.68-2.91-4.97-8.5-7.64-14.32-8.07Z"/>
  <path class="cls-2" d="M307.31,749.32c-12.8-2.45-20.32-7.01-34.5-3.56-34.46,8.38-20.45,59.44,11.85,46.65,6.82-2.7,12.64-5.76,18.16-10.62,4.91-4.33,7.17-9.96,11.59-14.53,6.25-6.47.48-16.48-7.09-17.93Z"/>
  <path class="cls-1" d="M741.85,331.07c-2.03-7.02-4.91-13.88-8.12-19.93-22.23-41.91-50.26-80.74-83.04-115.04-3.99-4.18-8.34-8.98-8.13-14.76.15-4.23,2.76-7.92,5.3-11.3,29.15-38.91,63.42-76.42,75.52-123.51,2.56-9.97,3.97-20.93-.47-30.21-7.52-15.74-29.38-19.84-45.57-13.37-16.19,6.48-27.98,20.47-39.06,33.93-20.02,24.32-40.04,48.64-60.06,72.96-2.21,2.68-4.56,5.47-7.78,6.77-5.99,2.41-12.59-1.07-18.15-4.37-41.19-24.5-84.41-45.59-129.07-62.98-12.61-4.91-27.09-9.46-39.21-3.44-18.14,9-18.36,36.38-6.94,53.1,11.42,16.72,30.17,26.6,45.78,39.5,15.61,12.9,29.19,32.68,23.85,52.21-4.31,15.79-19.3,25.75-31.81,36.31-12.51,10.56-24.29,26.54-18.99,42.03,7.21,21.11,37.22,20.98,58.44,14.09,21.22-6.88,47.15-15.53,63.55-.4,12.1,11.16,12.21,30.21,8.74,46.3-3.47,16.09-9.64,32.28-6.96,48.55,9.46,57.01,64.23,17.97,72.57-16.41,4.91-20.22,7.44-42.61,21.95-57.53,20.12,18.4,40.25,36.81,60.37,55.22,15.8,14.45,38.14,29.81,56.66,19.06,15.44-8.96,15.91-28.41,10.6-46.75Z"/>
  <path class="cls-3" d="M428.69,117.29c-75.55-34.19-162.01-40.35-231.42,11.33C63.56,228.16,66.81,384.97,27.77,533.94c-46.64,177.98,80.16,316.19,237.91,248.58,98.79-42.34,214.79-40.73,312.58-89.97,88.7-44.66,156.09-152.74,141.91-253.24-8.42-59.71-43.23-112.47-82.7-158.06-50.15-57.94-126.27-126.62-208.77-163.96Z"/>
  <path class="cls-1" d="M592.46,165.27c-9.99-3.02-24,3.24-27.1,13.94-4.25-9.71-9.39-19.11-16.85-27.66-6.95-7.96-19.96-1.34-20.1,8.33-.36,25.01,6.01,50.12,7.56,75.2,1.61,26.06.54,52.03.94,78.11.47,30.2,17.27,53.88,49.82,35.98,54.8-30.14,77.89-162.11,5.73-183.9Z"/>
  <path class="cls-2" d="M339.16,373.13c-14.19-4.56-26.81,3.21-36.88,12.69-23.48,22.1,15.42,58.93,34.63,34.63,7.26-9.18,15.48-19.55,13.91-31.99-.92-7.35-4.34-12.97-11.66-15.33Z"/>
  <path class="cls-2" d="M442.28,662.66c-12.1-8.69-26.5-5.17-38.99.76-29.14,13.83-3.41,60.81,22.33,43.59,9.72-6.51,20.73-13.85,23.06-26.18,1.38-7.28-.15-13.68-6.4-18.17Z"/>
  <path class="cls-2" d="M61.12,384.85c-11.92,7.1-18.69,17.87-22.81,30.96-10.11,32.1,38.66,45.11,44.55,11.94,2.01-11.32,3.27-21.45,2.43-32.95-.93-12.69-15.16-15.31-24.18-9.94Z"/>
  <path class="cls-2" d="M201.11,294.58c-12.91,5.09-21.32,14.63-27.49,26.89-15.14,30.06,30.9,50.73,42.06,18.95,3.81-10.85,6.68-20.65,7.7-32.13,1.12-12.68-12.5-17.55-22.26-13.7Z"/>
  <path class="cls-2" d="M405.2,487.43c-12.72,2.83-21.43,1.63-33.08,10.43-28.3,21.38,4.85,62.67,29.4,38.11,5.19-5.19,9.31-10.31,12.44-16.96,2.79-5.93,2.63-11.99,4.86-17.94,3.16-8.42-6.1-15.31-13.63-13.64Z"/>
  <path class="cls-2" d="M296.18,166.59c-3.85,11.12-15.44,23.73-21.25,27.55-29.62,19.5-57.43-25.57-26.05-40.47,6.63-3.15,12.83-5.32,20.16-6.04,6.16-.61,16.29-.23,21.84,2.31,7.09,3.25,7.74,9.65,5.31,16.65Z"/>
  <path class="cls-2" d="M578.19,553.28c-1.34-8.48-7.05-14.24-15.97-14.3-8.79-.06-17.25,3.94-25.64,6.25-7.97,2.2-15.56,10.28-16.76,18.56-.13.92-.27,1.84-.4,2.76-.97,6.71.2,15.58,6.31,19.91.55.39,1.1.77,1.65,1.16,12.09,8.56,24.14,8.38,35.51-1.52,9.2-8.01,17.3-20.15,15.3-32.84Z"/>
  <path class="cls-2" d="M102.62,627.97c-6.4-5.72-14.47-6.56-21.41-.97-9.18,7.4-18.74,21.61-19.54,33.46-.76,11.23,8.39,27.3,21.34,26.41.67-.05,1.34-.1,2.01-.14,14.78-1.02,24-8.79,26.53-23.64,2.05-12.03.65-26.55-8.93-35.11Z"/>
  <path class="cls-2" d="M655.8,408.67c-5.27-6.11-12.68-7.87-19.82-3.51-9.45,5.77-20.09,17.85-22.28,28.78-2.07,10.37,4.49,26.45,16.66,27.2.63.04,1.26.07,1.89.11,13.89.85,23.42-5.26,27.6-18.79,3.38-10.95,3.84-24.65-4.04-33.8Z"/>
  <path class="cls-2" d="M184.96,489.92c-5.82-6.32-13.76-7.94-21.21-3.05-7.35,4.83-12.17,12.84-17.87,19.41-5.42,6.25-7.26,17.18-3.66,24.74.4.84.8,1.68,1.2,2.52,2.91,6.12,8.81,12.86,16.29,13.08.67.02,1.34.04,2.02.05,14.81.42,24.74-6.4,28.71-20.94,3.22-11.77,3.23-26.36-5.47-35.82Z"/>
  <path class="cls-2" d="M467.29,317.82c-6.31,2.93-12.12,5.49-17.89,9.45-33.99,23.32,14.9,65.15,32.57,32.58,4.14-7.63,6.77-15.25,9.56-23.39,5.1-14.89-12.3-24.19-24.24-18.64Z"/>
  <path class="cls-2" d="M275.17,616.61c-3.83.66-7.59,2.1-11.18,3.65-15.84,6.87-38.84,13.77-29.42,36.41,6.66,16,25.8,19.94,38.83,9.15,8.06-6.68,11.02-14.32,17.62-21.75,7.83-8.83,4.16-25.27-8.1-27.51-2.58-.47-5.18-.38-7.75.06Z"/>
  <path class="cls-2" d="M463.48,203.9c-1.84,2.9-4.3,5.48-6.78,7.87-10.99,10.58-24.46,26.99-39.71,11.59-10.78-10.88-7.47-27.83,5.76-34.78,8.19-4.3,15.43-4.11,23.74-6.96,9.87-3.38,22.03,5.21,19.68,15.98-.5,2.27-1.45,4.35-2.69,6.3Z"/>
</svg>